<?xml version="1.0" standalone="no"?>
<!DOCTYPE svg PUBLIC "-//W3C//DTD SVG 20010904//EN"
 "http://www.w3.org/TR/2001/REC-SVG-20010904/DTD/svg10.dtd">
<svg version="1.0" xmlns="http://www.w3.org/2000/svg"
 width="1024.000000pt" height="1024.000000pt" viewBox="0 0 1024.000000 1024.000000"
 preserveAspectRatio="xMidYMid meet">

<g transform="translate(0.000000,1024.000000) scale(0.100000,-0.100000)"
fill="#1AD9CB" stroke="none">
<path d="M3585 7750 c-128 -9 -201 -25 -300 -63 -347 -133 -626 -425 -753
-787 -60 -173 -57 -87 -57 -1775 l0 -1550 27 -96 c51 -185 116 -320 226 -469
194 -261 506 -452 802 -490 59 -8 553 -10 1630 -8 l1545 3 95 27 c334 93 557
254 747 541 105 158 174 352 193 545 8 74 10 562 8 1582 -4 1457 -4 1476 -25
1565 -56 239 -173 448 -347 620 -185 183 -398 302 -621 346 -69 14 -2997 22
-3170 9z m3115 -364 c101 -22 173 -53 267 -115 198 -131 332 -312 395 -536
l23 -80 3 -1470 c2 -1017 -1 -1496 -8 -1553 -25 -189 -111 -355 -264 -508
-162 -161 -307 -233 -513 -254 -75 -8 -558 -10 -1568 -8 -1633 4 -1503 -2
-1669 77 -265 125 -461 374 -517 656 -6 31 -10 604 -9 1542 0 1666 -4 1574 70
1730 126 266 356 463 603 517 93 21 3092 22 3187 2z"/>
<path d="M5053 7100 c-116 -27 -181 -177 -124 -288 76 -148 279 -143 355 9 29
59 32 83 14 143 -23 75 -122 149 -194 145 -11 -1 -34 -5 -51 -9z"/>
<path d="M4599 6712 c-34 -22 -54 -45 -73 -84 -79 -163 -35 -382 106 -520 73
-72 140 -106 240 -124 42 -7 93 -20 112 -28 50 -21 118 -87 146 -143 22 -42
25 -61 25 -148 0 -105 -4 -118 -69 -233 -20 -35 -23 -48 -15 -75 18 -64 75
-84 135 -48 38 23 116 126 156 204 109 217 78 452 -81 614 -27 28 -74 65 -103
81 -55 32 -155 62 -204 62 -36 0 -111 34 -142 63 -58 54 -82 146 -63 239 19
89 -16 148 -95 163 -22 5 -41 -1 -75 -23z"/>
<path d="M5475 6614 c-44 -23 -66 -45 -81 -81 -47 -110 32 -243 144 -243 173
0 239 219 93 311 -52 33 -109 38 -156 13z"/>
<path d="M4206 6196 c-35 -13 -81 -50 -128 -101 -10 -11 -33 -49 -50 -85 -31
-61 -33 -71 -33 -170 0 -93 3 -112 27 -163 15 -32 53 -84 84 -117 67 -71 126
-96 249 -109 95 -10 121 -24 174 -95 44 -58 76 -79 118 -78 71 3 120 64 109
139 -14 103 -118 242 -218 291 -26 13 -78 28 -115 34 -38 5 -78 16 -90 24 -35
22 -56 71 -50 118 5 33 16 50 66 96 58 54 61 59 61 103 0 40 -5 53 -33 83 -28
31 -41 37 -83 40 -28 3 -66 -2 -88 -10z"/>
<path d="M5860 6192 c-22 -10 -42 -32 -54 -55 -28 -58 -11 -107 55 -154 82
-59 103 -133 54 -192 -26 -30 -58 -44 -130 -56 -139 -23 -280 -193 -280 -337
0 -49 4 -61 29 -87 24 -25 38 -31 70 -31 37 0 46 6 106 68 36 38 73 74 82 81
9 7 55 19 103 26 152 25 241 89 302 221 25 53 28 70 28 169 0 105 -2 114 -33
177 -70 142 -227 223 -332 170z"/>
<path d="M5059 5090 c-1519 -5 -1537 -5 -1559 -25 -50 -45 -53 -64 -47 -280 5
-195 20 -316 53 -435 127 -456 462 -854 889 -1056 243 -114 491 -163 775 -150
473 20 874 217 1219 598 l61 68 158 3 c180 4 237 18 351 86 99 58 173 138 221
235 161 328 -7 686 -362 772 -60 15 -68 20 -68 41 0 73 -61 137 -140 146 -8 1
-706 0 -1551 -3z m1331 -382 c0 -73 -29 -228 -60 -320 -64 -189 -168 -356
-320 -508 -200 -201 -423 -322 -674 -365 -117 -20 -368 -20 -473 0 -187 35
-373 121 -542 249 -177 134 -310 303 -403 511 -60 136 -86 237 -97 380 l-6 95
1287 0 1288 0 0 -42z m409 -183 c40 -20 78 -69 92 -115 25 -84 -39 -187 -134
-215 -45 -13 -117 -21 -117 -12 0 2 11 37 25 77 14 41 32 110 41 155 8 44 17
90 20 103 5 26 32 29 73 7z"/>
</g>
</svg>
